<?xml version="1.0" encoding="UTF-8"?>
<svg width="960" height="540" viewBox="0 0 960 540" fill="none" xmlns="http://www.w3.org/2000/svg" role="img" aria-labelledby="title desc">
  <title id="title">npm package download trends</title>
  <desc id="desc">Last 30 days of npm downloads for Meharaj's published packages.</desc>
  <rect width="960" height="540" rx="24" fill="#0f172a" />
  <rect x="16" y="16" width="928" height="508" rx="20" fill="#111827" stroke="#1f2937" />
  <text x="36" y="42" fill="#f8fafc" font-size="26" font-weight="700">npm download trends</text>
  <text x="36" y="94" fill="#94a3b8" font-size="14">Last 30 days across published packages</text>
  
  <circle cx="36" cy="58" r="5" fill="#22c55e" /><text x="50" y="62" fill="#e2e8f0" font-size="13">whatsapp-mcp</text><circle cx="326" cy="58" r="5" fill="#38bdf8" /><text x="340" y="62" fill="#e2e8f0" font-size="13">mcp-agent-loop</text><circle cx="36" cy="82" r="5" fill="#f59e0b" /><text x="50" y="86" fill="#e2e8f0" font-size="13">team-project-memory-skill</text><circle cx="326" cy="82" r="5" fill="#ef4444" /><text x="340" y="86" fill="#e2e8f0" font-size="13">contextengine-mcp</text><circle cx="36" cy="106" r="5" fill="#a78bfa" /><text x="50" y="110" fill="#e2e8f0" font-size="13">mpp-components</text>
  <line x1="64" y1="110" x2="924" y2="110" stroke="#334155" stroke-width="1" stroke-dasharray="4 6" /><text x="52" y="114" fill="#94a3b8" font-size="12" text-anchor="end">427</text><line x1="64" y1="202.21545667447305" x2="924" y2="202.21545667447305" stroke="#334155" stroke-width="1" stroke-dasharray="4 6" /><text x="52" y="206.21545667447305" fill="#94a3b8" font-size="12" text-anchor="end">320</text><line x1="64" y1="293.56908665105385" x2="924" y2="293.56908665105385" stroke="#334155" stroke-width="1" stroke-dasharray="4 6" /><text x="52" y="297.56908665105385" fill="#94a3b8" font-size="12" text-anchor="end">214</text><line x1="64" y1="385.7845433255269" x2="924" y2="385.7845433255269" stroke="#334155" stroke-width="1" stroke-dasharray="4 6" /><text x="52" y="389.7845433255269" fill="#94a3b8" font-size="12" text-anchor="end">107</text><line x1="64" y1="478" x2="924" y2="478" stroke="#334155" stroke-width="1" stroke-dasharray="4 6" /><text x="52" y="482" fill="#94a3b8" font-size="12" text-anchor="end">0</text>
  <line x1="64" y1="478" x2="924" y2="478" stroke="#475569" stroke-width="1.5" />
  <line x1="64" y1="110" x2="64" y2="478" stroke="#475569" stroke-width="1.5" />
  <path d="M 64.00 473.69 L 93.66 460.76 L 123.31 471.11 L 152.97 474.55 L 182.62 473.69 L 212.28 473.69 L 241.93 473.69 L 271.59 463.35 L 301.24 458.18 L 330.90 446.97 L 360.55 457.32 L 390.21 459.04 L 419.86 448.70 L 449.52 456.45 L 479.17 456.45 L 508.83 457.32 L 538.48 452.15 L 568.14 463.35 L 597.79 457.32 L 627.45 468.52 L 657.10 472.83 L 686.76 473.69 L 716.41 478.00 L 746.07 472.83 L 775.72 474.55 L 805.38 471.97 L 835.03 465.93 L 864.69 471.11 L 894.34 472.83 L 924.00 471.11" fill="none" stroke="#22c55e" stroke-width="3" stroke-linecap="round" stroke-linejoin="round" /><circle cx="924.00" cy="471.11" r="4.5" fill="#22c55e" /><path d="M 64.00 471.97 L 93.66 468.52 L 123.31 474.55 L 152.97 473.69 L 182.62 473.69 L 212.28 474.55 L 241.93 471.97 L 271.59 473.69 L 301.24 459.90 L 330.90 456.45 L 360.55 458.18 L 390.21 453.87 L 419.86 453.01 L 449.52 478.00 L 479.17 456.45 L 508.83 459.04 L 538.48 457.32 L 568.14 464.21 L 597.79 459.04 L 627.45 478.00 L 657.10 476.28 L 686.76 476.28 L 716.41 478.00 L 746.07 476.28 L 775.72 475.41 L 805.38 476.28 L 835.03 471.11 L 864.69 471.11 L 894.34 470.24 L 924.00 474.55" fill="none" stroke="#38bdf8" stroke-width="3" stroke-linecap="round" stroke-linejoin="round" /><circle cx="924.00" cy="474.55" r="4.5" fill="#38bdf8" /><path d="M 64.00 478.00 L 93.66 478.00 L 123.31 478.00 L 152.97 478.00 L 182.62 478.00 L 212.28 478.00 L 241.93 478.00 L 271.59 478.00 L 301.24 478.00 L 330.90 478.00 L 360.55 478.00 L 390.21 478.00 L 419.86 478.00 L 449.52 478.00 L 479.17 478.00 L 508.83 478.00 L 538.48 478.00 L 568.14 478.00 L 597.79 478.00 L 627.45 478.00 L 657.10 459.04 L 686.76 337.52 L 716.41 478.00 L 746.07 472.83 L 775.72 465.93 L 805.38 477.14 L 835.03 477.14 L 864.69 470.24 L 894.34 477.14 L 924.00 476.28" fill="none" stroke="#f59e0b" stroke-width="3" stroke-linecap="round" stroke-linejoin="round" /><circle cx="924.00" cy="476.28" r="4.5" fill="#f59e0b" /><path d="M 64.00 478.00 L 93.66 478.00 L 123.31 478.00 L 152.97 478.00 L 182.62 478.00 L 212.28 478.00 L 241.93 478.00 L 271.59 478.00 L 301.24 478.00 L 330.90 478.00 L 360.55 478.00 L 390.21 478.00 L 419.86 478.00 L 449.52 478.00 L 479.17 478.00 L 508.83 478.00 L 538.48 478.00 L 568.14 478.00 L 597.79 478.00 L 627.45 110.00 L 657.10 453.01 L 686.76 462.49 L 716.41 478.00 L 746.07 476.28 L 775.72 473.69 L 805.38 477.14 L 835.03 475.41 L 864.69 475.41 L 894.34 476.28 L 924.00 478.00" fill="none" stroke="#ef4444" stroke-width="3" stroke-linecap="round" stroke-linejoin="round" /><circle cx="924.00" cy="478.00" r="4.5" fill="#ef4444" /><path d="M 64.00 478.00 L 93.66 476.28 L 123.31 478.00 L 152.97 478.00 L 182.62 478.00 L 212.28 477.14 L 241.93 478.00 L 271.59 478.00 L 301.24 475.41 L 330.90 475.41 L 360.55 478.00 L 390.21 478.00 L 419.86 478.00 L 449.52 478.00 L 479.17 478.00 L 508.83 478.00 L 538.48 476.28 L 568.14 478.00 L 597.79 478.00 L 627.45 478.00 L 657.10 478.00 L 686.76 478.00 L 716.41 478.00 L 746.07 478.00 L 775.72 478.00 L 805.38 478.00 L 835.03 478.00 L 864.69 478.00 L 894.34 477.14 L 924.00 478.00" fill="none" stroke="#a78bfa" stroke-width="3" stroke-linecap="round" stroke-linejoin="round" /><circle cx="924.00" cy="478.00" r="4.5" fill="#a78bfa" />
  <text x="64" y="518" fill="#94a3b8" font-size="12" text-anchor="start">20/06</text><text x="494" y="518" fill="#94a3b8" font-size="12" text-anchor="middle">04/07</text><text x="924" y="518" fill="#94a3b8" font-size="12" text-anchor="end">19/07</text>
</svg>
