<?xml version="1.0" encoding="UTF-8"?>
<svg width="960" height="540" viewBox="0 0 960 540" fill="none" xmlns="http://www.w3.org/2000/svg" role="img" aria-labelledby="title desc">
  <title id="title">npm package download trends</title>
  <desc id="desc">Last 30 days of npm downloads for Meharaj's published packages.</desc>
  <rect width="960" height="540" rx="24" fill="#0f172a" />
  <rect x="16" y="16" width="928" height="508" rx="20" fill="#111827" stroke="#1f2937" />
  <text x="36" y="42" fill="#f8fafc" font-size="26" font-weight="700">npm download trends</text>
  <text x="36" y="94" fill="#94a3b8" font-size="14">Last 30 days across published packages</text>
  
  <circle cx="36" cy="58" r="5" fill="#22c55e" /><text x="50" y="62" fill="#e2e8f0" font-size="13">whatsapp-mcp</text><circle cx="326" cy="58" r="5" fill="#38bdf8" /><text x="340" y="62" fill="#e2e8f0" font-size="13">mcp-agent-loop</text><circle cx="36" cy="82" r="5" fill="#f59e0b" /><text x="50" y="86" fill="#e2e8f0" font-size="13">team-project-memory-skill</text><circle cx="326" cy="82" r="5" fill="#ef4444" /><text x="340" y="86" fill="#e2e8f0" font-size="13">contextengine-mcp</text><circle cx="36" cy="106" r="5" fill="#a78bfa" /><text x="50" y="110" fill="#e2e8f0" font-size="13">mpp-components</text>
  <line x1="64" y1="110" x2="924" y2="110" stroke="#334155" stroke-width="1" stroke-dasharray="4 6" /><text x="52" y="114" fill="#94a3b8" font-size="12" text-anchor="end">427</text><line x1="64" y1="202.21545667447305" x2="924" y2="202.21545667447305" stroke="#334155" stroke-width="1" stroke-dasharray="4 6" /><text x="52" y="206.21545667447305" fill="#94a3b8" font-size="12" text-anchor="end">320</text><line x1="64" y1="293.56908665105385" x2="924" y2="293.56908665105385" stroke="#334155" stroke-width="1" stroke-dasharray="4 6" /><text x="52" y="297.56908665105385" fill="#94a3b8" font-size="12" text-anchor="end">214</text><line x1="64" y1="385.7845433255269" x2="924" y2="385.7845433255269" stroke="#334155" stroke-width="1" stroke-dasharray="4 6" /><text x="52" y="389.7845433255269" fill="#94a3b8" font-size="12" text-anchor="end">107</text><line x1="64" y1="478" x2="924" y2="478" stroke="#334155" stroke-width="1" stroke-dasharray="4 6" /><text x="52" y="482" fill="#94a3b8" font-size="12" text-anchor="end">0</text>
  <line x1="64" y1="478" x2="924" y2="478" stroke="#475569" stroke-width="1.5" />
  <line x1="64" y1="110" x2="64" y2="478" stroke="#475569" stroke-width="1.5" />
  <path d="M 64.00 476.28 L 93.66 352.17 L 123.31 464.21 L 152.97 458.18 L 182.62 461.63 L 212.28 476.28 L 241.93 473.69 L 271.59 460.76 L 301.24 471.11 L 330.90 474.55 L 360.55 473.69 L 390.21 473.69 L 419.86 473.69 L 449.52 463.35 L 479.17 458.18 L 508.83 446.97 L 538.48 457.32 L 568.14 459.04 L 597.79 448.70 L 627.45 456.45 L 657.10 456.45 L 686.76 457.32 L 716.41 452.15 L 746.07 463.35 L 775.72 457.32 L 805.38 468.52 L 835.03 472.83 L 864.69 473.69 L 894.34 478.00 L 924.00 472.83" fill="none" stroke="#22c55e" stroke-width="3" stroke-linecap="round" stroke-linejoin="round" /><circle cx="924.00" cy="472.83" r="4.5" fill="#22c55e" /><path d="M 64.00 478.00 L 93.66 477.14 L 123.31 472.83 L 152.97 474.55 L 182.62 476.28 L 212.28 476.28 L 241.93 471.97 L 271.59 468.52 L 301.24 474.55 L 330.90 473.69 L 360.55 473.69 L 390.21 474.55 L 419.86 471.97 L 449.52 473.69 L 479.17 459.90 L 508.83 456.45 L 538.48 458.18 L 568.14 453.87 L 597.79 453.01 L 627.45 478.00 L 657.10 456.45 L 686.76 459.04 L 716.41 457.32 L 746.07 464.21 L 775.72 459.04 L 805.38 478.00 L 835.03 476.28 L 864.69 476.28 L 894.34 478.00 L 924.00 476.28" fill="none" stroke="#38bdf8" stroke-width="3" stroke-linecap="round" stroke-linejoin="round" /><circle cx="924.00" cy="476.28" r="4.5" fill="#38bdf8" /><path d="M 64.00 478.00 L 93.66 478.00 L 123.31 478.00 L 152.97 478.00 L 182.62 478.00 L 212.28 478.00 L 241.93 478.00 L 271.59 478.00 L 301.24 478.00 L 330.90 478.00 L 360.55 478.00 L 390.21 478.00 L 419.86 478.00 L 449.52 478.00 L 479.17 478.00 L 508.83 478.00 L 538.48 478.00 L 568.14 478.00 L 597.79 478.00 L 627.45 478.00 L 657.10 478.00 L 686.76 478.00 L 716.41 478.00 L 746.07 478.00 L 775.72 478.00 L 805.38 478.00 L 835.03 459.04 L 864.69 337.52 L 894.34 478.00 L 924.00 472.83" fill="none" stroke="#f59e0b" stroke-width="3" stroke-linecap="round" stroke-linejoin="round" /><circle cx="924.00" cy="472.83" r="4.5" fill="#f59e0b" /><path d="M 64.00 478.00 L 93.66 478.00 L 123.31 478.00 L 152.97 478.00 L 182.62 478.00 L 212.28 478.00 L 241.93 478.00 L 271.59 478.00 L 301.24 478.00 L 330.90 478.00 L 360.55 478.00 L 390.21 478.00 L 419.86 478.00 L 449.52 478.00 L 479.17 478.00 L 508.83 478.00 L 538.48 478.00 L 568.14 478.00 L 597.79 478.00 L 627.45 478.00 L 657.10 478.00 L 686.76 478.00 L 716.41 478.00 L 746.07 478.00 L 775.72 478.00 L 805.38 110.00 L 835.03 453.01 L 864.69 462.49 L 894.34 478.00 L 924.00 476.28" fill="none" stroke="#ef4444" stroke-width="3" stroke-linecap="round" stroke-linejoin="round" /><circle cx="924.00" cy="476.28" r="4.5" fill="#ef4444" /><path d="M 64.00 478.00 L 93.66 476.28 L 123.31 476.28 L 152.97 477.14 L 182.62 478.00 L 212.28 478.00 L 241.93 478.00 L 271.59 476.28 L 301.24 478.00 L 330.90 478.00 L 360.55 478.00 L 390.21 477.14 L 419.86 478.00 L 449.52 478.00 L 479.17 475.41 L 508.83 475.41 L 538.48 478.00 L 568.14 478.00 L 597.79 478.00 L 627.45 478.00 L 657.10 478.00 L 686.76 478.00 L 716.41 476.28 L 746.07 478.00 L 775.72 478.00 L 805.38 478.00 L 835.03 478.00 L 864.69 478.00 L 894.34 478.00 L 924.00 478.00" fill="none" stroke="#a78bfa" stroke-width="3" stroke-linecap="round" stroke-linejoin="round" /><circle cx="924.00" cy="478.00" r="4.5" fill="#a78bfa" />
  <text x="64" y="518" fill="#94a3b8" font-size="12" text-anchor="start">14/06</text><text x="494" y="518" fill="#94a3b8" font-size="12" text-anchor="middle">28/06</text><text x="924" y="518" fill="#94a3b8" font-size="12" text-anchor="end">13/07</text>
</svg>
