<?xml version="1.0" encoding="UTF-8"?>
<svg width="960" height="540" viewBox="0 0 960 540" fill="none" xmlns="http://www.w3.org/2000/svg" role="img" aria-labelledby="title desc">
  <title id="title">npm package download trends</title>
  <desc id="desc">Last 30 days of npm downloads for Meharaj's published packages.</desc>
  <rect width="960" height="540" rx="24" fill="#0f172a" />
  <rect x="16" y="16" width="928" height="508" rx="20" fill="#111827" stroke="#1f2937" />
  <text x="36" y="42" fill="#f8fafc" font-size="26" font-weight="700">npm download trends</text>
  <text x="36" y="94" fill="#94a3b8" font-size="14">Last 30 days across published packages</text>
  <text x="36" y="522" fill="#64748b" font-size="12">Waiting for npm range history: team-project-memory-skill, contextengine-mcp</text>
  <circle cx="36" cy="58" r="5" fill="#22c55e" /><text x="50" y="62" fill="#e2e8f0" font-size="13">whatsapp-mcp</text><circle cx="326" cy="58" r="5" fill="#38bdf8" /><text x="340" y="62" fill="#e2e8f0" font-size="13">mcp-agent-loop</text><circle cx="36" cy="82" r="5" fill="#a78bfa" /><text x="50" y="86" fill="#e2e8f0" font-size="13">mpp-components</text>
  <line x1="64" y1="110" x2="924" y2="110" stroke="#334155" stroke-width="1" stroke-dasharray="4 6" /><text x="52" y="114" fill="#94a3b8" font-size="12" text-anchor="end">146</text><line x1="64" y1="200.73972602739724" x2="924" y2="200.73972602739724" stroke="#334155" stroke-width="1" stroke-dasharray="4 6" /><text x="52" y="204.73972602739724" fill="#94a3b8" font-size="12" text-anchor="end">110</text><line x1="64" y1="294" x2="924" y2="294" stroke="#334155" stroke-width="1" stroke-dasharray="4 6" /><text x="52" y="298" fill="#94a3b8" font-size="12" text-anchor="end">73</text><line x1="64" y1="384.73972602739724" x2="924" y2="384.73972602739724" stroke="#334155" stroke-width="1" stroke-dasharray="4 6" /><text x="52" y="388.73972602739724" fill="#94a3b8" font-size="12" text-anchor="end">37</text><line x1="64" y1="478" x2="924" y2="478" stroke="#334155" stroke-width="1" stroke-dasharray="4 6" /><text x="52" y="482" fill="#94a3b8" font-size="12" text-anchor="end">0</text>
  <line x1="64" y1="478" x2="924" y2="478" stroke="#475569" stroke-width="1.5" />
  <line x1="64" y1="110" x2="64" y2="478" stroke="#475569" stroke-width="1.5" />
  <path d="M 64.00 478.00 L 93.66 472.96 L 123.31 465.40 L 152.97 472.96 L 182.62 472.96 L 212.28 472.96 L 241.93 110.00 L 271.59 437.67 L 301.24 420.03 L 330.90 430.11 L 360.55 472.96 L 390.21 465.40 L 419.86 427.59 L 449.52 457.84 L 479.17 467.92 L 508.83 465.40 L 538.48 465.40 L 568.14 465.40 L 597.79 435.15 L 627.45 420.03 L 657.10 387.26 L 686.76 417.51 L 716.41 422.55 L 746.07 392.30 L 775.72 414.99 L 805.38 414.99 L 835.03 417.51 L 864.69 402.38 L 894.34 435.15 L 924.00 417.51" fill="none" stroke="#22c55e" stroke-width="3" stroke-linecap="round" stroke-linejoin="round" /><circle cx="924.00" cy="417.51" r="4.5" fill="#22c55e" /><path d="M 64.00 478.00 L 93.66 475.48 L 123.31 470.44 L 152.97 478.00 L 182.62 472.96 L 212.28 478.00 L 241.93 475.48 L 271.59 462.88 L 301.24 467.92 L 330.90 472.96 L 360.55 472.96 L 390.21 460.36 L 419.86 450.27 L 449.52 467.92 L 479.17 465.40 L 508.83 465.40 L 538.48 467.92 L 568.14 460.36 L 597.79 465.40 L 627.45 425.07 L 657.10 414.99 L 686.76 420.03 L 716.41 407.42 L 746.07 404.90 L 775.72 478.00 L 805.38 414.99 L 835.03 422.55 L 864.69 417.51 L 894.34 437.67 L 924.00 422.55" fill="none" stroke="#38bdf8" stroke-width="3" stroke-linecap="round" stroke-linejoin="round" /><circle cx="924.00" cy="422.55" r="4.5" fill="#38bdf8" /><path d="M 64.00 478.00 L 93.66 472.96 L 123.31 478.00 L 152.97 478.00 L 182.62 478.00 L 212.28 478.00 L 241.93 472.96 L 271.59 472.96 L 301.24 475.48 L 330.90 478.00 L 360.55 478.00 L 390.21 478.00 L 419.86 472.96 L 449.52 478.00 L 479.17 478.00 L 508.83 478.00 L 538.48 475.48 L 568.14 478.00 L 597.79 478.00 L 627.45 470.44 L 657.10 470.44 L 686.76 478.00 L 716.41 478.00 L 746.07 478.00 L 775.72 478.00 L 805.38 478.00 L 835.03 478.00 L 864.69 472.96 L 894.34 478.00 L 924.00 478.00" fill="none" stroke="#a78bfa" stroke-width="3" stroke-linecap="round" stroke-linejoin="round" /><circle cx="924.00" cy="478.00" r="4.5" fill="#a78bfa" />
  <text x="64" y="518" fill="#94a3b8" font-size="12" text-anchor="start">09/06</text><text x="494" y="518" fill="#94a3b8" font-size="12" text-anchor="middle">23/06</text><text x="924" y="518" fill="#94a3b8" font-size="12" text-anchor="end">08/07</text>
</svg>
