<?xml version="1.0" encoding="UTF-8"?>
<svg width="960" height="540" viewBox="0 0 960 540" fill="none" xmlns="http://www.w3.org/2000/svg" role="img" aria-labelledby="title desc">
  <title id="title">npm package download trends</title>
  <desc id="desc">Last 30 days of npm downloads for Meharaj's published packages.</desc>
  <rect width="960" height="540" rx="24" fill="#0f172a" />
  <rect x="16" y="16" width="928" height="508" rx="20" fill="#111827" stroke="#1f2937" />
  <text x="36" y="42" fill="#f8fafc" font-size="26" font-weight="700">npm download trends</text>
  <text x="36" y="94" fill="#94a3b8" font-size="14">Last 30 days across published packages</text>
  
  <circle cx="36" cy="58" r="5" fill="#22c55e" /><text x="50" y="62" fill="#e2e8f0" font-size="13">whatsapp-mcp</text><circle cx="326" cy="58" r="5" fill="#38bdf8" /><text x="340" y="62" fill="#e2e8f0" font-size="13">mcp-agent-loop</text><circle cx="36" cy="82" r="5" fill="#f59e0b" /><text x="50" y="86" fill="#e2e8f0" font-size="13">team-project-memory-skill</text><circle cx="326" cy="82" r="5" fill="#ef4444" /><text x="340" y="86" fill="#e2e8f0" font-size="13">contextengine-mcp</text><circle cx="36" cy="106" r="5" fill="#a78bfa" /><text x="50" y="110" fill="#e2e8f0" font-size="13">mpp-components</text>
  <line x1="64" y1="110" x2="924" y2="110" stroke="#334155" stroke-width="1" stroke-dasharray="4 6" /><text x="52" y="114" fill="#94a3b8" font-size="12" text-anchor="end">122</text><line x1="64" y1="200.49180327868856" x2="924" y2="200.49180327868856" stroke="#334155" stroke-width="1" stroke-dasharray="4 6" /><text x="52" y="204.49180327868856" fill="#94a3b8" font-size="12" text-anchor="end">92</text><line x1="64" y1="294" x2="924" y2="294" stroke="#334155" stroke-width="1" stroke-dasharray="4 6" /><text x="52" y="298" fill="#94a3b8" font-size="12" text-anchor="end">61</text><line x1="64" y1="384.4918032786885" x2="924" y2="384.4918032786885" stroke="#334155" stroke-width="1" stroke-dasharray="4 6" /><text x="52" y="388.4918032786885" fill="#94a3b8" font-size="12" text-anchor="end">31</text><line x1="64" y1="478" x2="924" y2="478" stroke="#334155" stroke-width="1" stroke-dasharray="4 6" /><text x="52" y="482" fill="#94a3b8" font-size="12" text-anchor="end">0</text>
  <line x1="64" y1="478" x2="924" y2="478" stroke="#475569" stroke-width="1.5" />
  <line x1="64" y1="110" x2="64" y2="478" stroke="#475569" stroke-width="1.5" />
  <path d="M 64.00 462.92 L 93.66 459.90 L 123.31 432.75 L 152.97 453.87 L 182.62 478.00 L 212.28 468.95 L 241.93 411.64 L 271.59 429.74 L 301.24 462.92 L 330.90 453.87 L 360.55 459.90 L 390.21 465.93 L 419.86 441.80 L 449.52 465.93 L 479.17 462.92 L 508.83 459.90 L 538.48 441.80 L 568.14 444.82 L 597.79 381.48 L 627.45 188.43 L 657.10 110.00 L 686.76 149.21 L 716.41 242.72 L 746.07 300.03 L 775.72 478.00 L 805.38 384.49 L 835.03 342.26 L 864.69 239.70 L 894.34 134.13 L 924.00 414.66" fill="none" stroke="#22c55e" stroke-width="3" stroke-linecap="round" stroke-linejoin="round" /><circle cx="924.00" cy="414.66" r="4.5" fill="#22c55e" /><path d="M 64.00 462.92 L 93.66 444.82 L 123.31 432.75 L 152.97 459.90 L 182.62 468.95 L 212.28 478.00 L 241.93 441.80 L 271.59 453.87 L 301.24 471.97 L 330.90 468.95 L 360.55 468.95 L 390.21 465.93 L 419.86 465.93 L 449.52 468.95 L 479.17 462.92 L 508.83 447.84 L 538.48 456.89 L 568.14 465.93 L 597.79 435.77 L 627.45 432.75 L 657.10 478.00 L 686.76 447.84 L 716.41 450.85 L 746.07 465.93 L 775.72 478.00 L 805.38 465.93 L 835.03 456.89 L 864.69 456.89 L 894.34 453.87 L 924.00 450.85" fill="none" stroke="#38bdf8" stroke-width="3" stroke-linecap="round" stroke-linejoin="round" /><circle cx="924.00" cy="450.85" r="4.5" fill="#38bdf8" /><path d="M 64.00 478.00 L 93.66 459.90 L 123.31 474.98 L 152.97 474.98 L 182.62 478.00 L 212.28 471.97 L 241.93 456.89 L 271.59 474.98 L 301.24 478.00 L 330.90 478.00 L 360.55 465.93 L 390.21 474.98 L 419.86 478.00 L 449.52 474.98 L 479.17 478.00 L 508.83 471.97 L 538.48 471.97 L 568.14 462.92 L 597.79 450.85 L 627.45 471.97 L 657.10 459.90 L 686.76 478.00 L 716.41 468.95 L 746.07 478.00 L 775.72 478.00 L 805.38 478.00 L 835.03 474.98 L 864.69 462.92 L 894.34 468.95 L 924.00 456.89" fill="none" stroke="#f59e0b" stroke-width="3" stroke-linecap="round" stroke-linejoin="round" /><circle cx="924.00" cy="456.89" r="4.5" fill="#f59e0b" /><path d="M 64.00 468.95 L 93.66 468.95 L 123.31 435.77 L 152.97 462.92 L 182.62 478.00 L 212.28 471.97 L 241.93 456.89 L 271.59 462.92 L 301.24 474.98 L 330.90 478.00 L 360.55 471.97 L 390.21 471.97 L 419.86 468.95 L 449.52 474.98 L 479.17 474.98 L 508.83 474.98 L 538.48 465.93 L 568.14 462.92 L 597.79 456.89 L 627.45 453.87 L 657.10 468.95 L 686.76 462.92 L 716.41 468.95 L 746.07 474.98 L 775.72 478.00 L 805.38 474.98 L 835.03 459.90 L 864.69 478.00 L 894.34 468.95 L 924.00 468.95" fill="none" stroke="#ef4444" stroke-width="3" stroke-linecap="round" stroke-linejoin="round" /><circle cx="924.00" cy="468.95" r="4.5" fill="#ef4444" /><path d="M 64.00 478.00 L 93.66 478.00 L 123.31 478.00 L 152.97 474.98 L 182.62 478.00 L 212.28 478.00 L 241.93 471.97 L 271.59 478.00 L 301.24 478.00 L 330.90 478.00 L 360.55 478.00 L 390.21 478.00 L 419.86 478.00 L 449.52 478.00 L 479.17 478.00 L 508.83 478.00 L 538.48 474.98 L 568.14 478.00 L 597.79 465.93 L 627.45 478.00 L 657.10 478.00 L 686.76 478.00 L 716.41 474.98 L 746.07 478.00 L 775.72 478.00 L 805.38 478.00 L 835.03 478.00 L 864.69 478.00 L 894.34 478.00 L 924.00 478.00" fill="none" stroke="#a78bfa" stroke-width="3" stroke-linecap="round" stroke-linejoin="round" /><circle cx="924.00" cy="478.00" r="4.5" fill="#a78bfa" />
  <text x="64" y="518" fill="#94a3b8" font-size="12" text-anchor="start">21/07</text><text x="494" y="518" fill="#94a3b8" font-size="12" text-anchor="middle">04/08</text><text x="924" y="518" fill="#94a3b8" font-size="12" text-anchor="end">19/08</text>
</svg>
